<svg width="306" height="5" viewBox="0 0 306 5" fill="none" xmlns="http://www.w3.org/2000/svg">
<path d="M11.9359 4.16781L16.4072 0H10.4393H4.47132L0 4.16781H11.9359Z" fill="#0053A1"/>
<path d="M28.9517 4.16781L33.4231 0H27.4551H21.4889L17.0159 4.16781H28.9517Z" fill="#E40E22"/>
<path d="M45.036 4.16781H45.9676L50.4406 0H44.4727H38.5047L34.0317 4.16781H45.036Z" fill="#0053A1"/>
<path d="M60.974 4.16781H62.9852L67.4565 0H61.4886H55.5206L51.0493 4.16781H60.974Z" fill="#E40E22"/>
<path d="M76.9121 4.16781H80.0012L84.4725 0H78.5046H72.5366L68.0653 4.16781H76.9121Z" fill="#0053A1"/>
<path d="M92.8518 4.16781H97.0171L101.49 0H95.5221H89.5542L85.0812 4.16781H92.8518Z" fill="#E40E22"/>
<path d="M113.936 4.16781L118.407 0H112.439H106.471L102 4.16781H113.936Z" fill="#0053A1"/>
<path d="M130.952 4.16781L135.423 0H129.455H123.489L119.016 4.16781H130.952Z" fill="#E40E22"/>
<path d="M147.036 4.16781H147.968L152.441 0H146.473H140.505L136.032 4.16781H147.036Z" fill="#0053A1"/>
<path d="M162.974 4.16781H164.985L169.457 0H163.489H157.521L153.049 4.16781H162.974Z" fill="#E40E22"/>
<path d="M178.912 4.16781H182.001L186.473 0H180.505H174.537L170.065 4.16781H178.912Z" fill="#0053A1"/>
<path d="M194.852 4.16781H199.017L203.49 0H197.522H191.554L187.081 4.16781H194.852Z" fill="#E40E22"/>
<path d="M215.936 4.16781L220.407 0H214.439H208.471L204 4.16781H215.936Z" fill="#0053A1"/>
<path d="M232.952 4.16781L237.423 0H231.455H225.489L221.016 4.16781H232.952Z" fill="#E40E22"/>
<path d="M249.036 4.16781H249.968L254.441 0H248.473H242.505L238.032 4.16781H249.036Z" fill="#0053A1"/>
<path d="M264.974 4.16781H266.985L271.457 0H265.489H259.521L255.049 4.16781H264.974Z" fill="#E40E22"/>
<path d="M280.912 4.16781H284.001L288.473 0H282.505H276.537L272.065 4.16781H280.912Z" fill="#0053A1"/>
<path d="M296.852 4.16781H301.017L305.49 0H299.522H293.554L289.081 4.16781H296.852Z" fill="#E40E22"/>
</svg>
