<svg width="170" height="38" viewBox="0 0 170 38" fill="none" xmlns="http://www.w3.org/2000/svg">
<path d="M49.6217 22.8972H50.8594C52.4845 22.8972 53.8072 21.6042 53.8072 20.0362V18.8349C53.8072 17.2577 52.475 15.9739 50.8594 15.9739H49.6217C47.9966 15.9739 46.6739 17.2669 46.6739 18.8349V20.0362C46.6644 21.6042 47.9966 22.8972 49.6217 22.8972Z" fill="#01015B"/>
<path d="M30.3095 17.4778C30.1678 17.0376 29.9222 16.6433 29.5726 16.3224C29.1096 15.9006 28.3916 15.8089 28.0137 15.332C27.9475 15.2495 27.8908 15.167 27.8436 15.0753C27.6452 14.7177 27.5507 14.3142 27.5507 13.9107C27.5507 13.8924 27.5507 13.8649 27.5507 13.819C27.5507 13.819 27.5507 12.5261 27.5507 11.2056C27.5507 9.89431 27.5507 8.59218 27.5507 8.59218C27.5507 8.54633 27.5507 8.51882 27.5507 8.50048C27.5507 8.09701 27.6452 7.68436 27.8436 7.33591C27.8908 7.24421 27.957 7.16168 28.0137 7.07915C28.3916 6.59315 29.1096 6.51062 29.5726 6.0888C29.9127 5.77703 30.1678 5.37355 30.3095 4.9334C30.404 4.64913 30.4513 4.37403 30.4607 4.0806C30.508 2.77847 30.5174 1.35714 29.3175 0.504344C29.0057 0.284266 28.6372 0.137548 28.2593 0.0641892C28.1365 0.0275097 27.9948 0.00916988 27.8436 0C27.8247 0 26.3602 0 26.3602 0L25.7745 0.0183398C25.3115 0.0641892 24.8674 0.238417 24.4895 0.504344C23.2896 1.35714 23.299 2.77847 23.3463 4.0806C23.3557 4.37403 23.4124 4.64913 23.4975 4.9334C23.6392 5.37355 23.8848 5.76786 24.2344 6.0888C24.6974 6.51062 25.4154 6.60232 25.7933 7.07915C25.85 7.16168 25.9067 7.24421 25.954 7.33591C26.1524 7.69353 26.2469 8.09701 26.2469 8.50048C26.2469 8.51882 26.2469 8.54633 26.2469 8.59218C26.2469 8.59218 26.2469 9.88514 26.2469 11.2056C26.2469 12.5169 26.2469 13.819 26.2469 13.819C26.2469 13.8649 26.2469 13.8924 26.2469 13.9107C26.2469 14.3142 26.1524 14.7268 25.954 15.0753C25.9067 15.167 25.8406 15.2495 25.7839 15.332C25.406 15.818 24.6879 15.9006 24.225 16.3224C23.8848 16.6342 23.6486 17.0376 23.5069 17.4778C23.4124 17.7621 23.3463 18.0372 23.3368 18.3306C23.2896 19.6327 23.2801 21.0541 24.4801 21.9069C24.858 22.1728 25.302 22.3378 25.765 22.3929C25.7745 22.3929 26.3508 22.4112 26.3508 22.4112C26.3508 22.4112 27.8152 22.4112 27.8341 22.4112C27.9853 22.402 28.127 22.3929 28.2499 22.3562C28.6278 22.2828 28.9868 22.1361 29.308 21.916C30.508 21.0632 30.4985 19.6419 30.4513 18.3398C30.4513 18.0372 30.3946 17.7621 30.3095 17.4778Z" fill="#6BE9EB"/>
<path d="M30.3094 33.0666C30.1677 32.6265 29.922 32.2322 29.5724 31.9112C29.1095 31.4894 28.3914 31.3977 28.0135 30.9209C27.9474 30.8384 27.8907 30.7558 27.8434 30.6641C27.645 30.3065 27.5505 29.903 27.5505 29.4996C27.5505 29.4812 27.5505 29.4537 27.5505 29.4079C27.5505 29.4079 27.5505 28.1149 27.5505 26.7944C27.5505 25.4831 27.5505 24.181 27.5505 24.181C27.5505 24.1352 27.5505 24.1077 27.5505 24.0893C27.5505 23.6858 27.645 23.2732 27.8434 22.9247C27.8907 22.833 27.9568 22.7505 28.0135 22.668C28.3914 22.182 29.1095 22.0995 29.5724 21.6776C29.9126 21.3659 30.1677 20.9624 30.3094 20.5222C30.4039 20.238 30.4511 19.9629 30.4606 19.6694C30.5078 18.3673 30.4983 16.946 29.2984 16.0932C28.9866 15.8731 28.6371 15.7172 28.2591 15.6439C28.1363 15.6163 27.9946 15.598 27.8434 15.5888C27.8245 15.5888 26.3601 15.5888 26.3601 15.5888L25.7743 15.6072C25.3113 15.653 24.9145 15.8273 24.5366 16.0932C23.3367 16.946 23.2989 18.3673 23.3461 19.6694C23.3556 19.9629 23.4123 20.238 23.4973 20.5222C23.639 20.9624 23.8847 21.3567 24.2342 21.6776C24.6972 22.0995 25.4153 22.1912 25.7932 22.668C25.8593 22.7505 25.916 22.833 25.9632 22.9247C26.1617 23.2824 26.2561 23.6858 26.2561 24.0893C26.2561 24.1077 26.2561 24.1352 26.2561 24.181C26.2561 24.181 26.2561 25.474 26.2561 26.7944C26.2561 28.1057 26.2561 29.4079 26.2561 29.4079C26.2561 29.4537 26.2561 29.4812 26.2561 29.4996C26.2561 29.903 26.1617 30.3157 25.9632 30.6641C25.916 30.7558 25.8499 30.8384 25.7932 30.9209C25.4153 31.4069 24.6972 31.4894 24.2342 31.9112C23.8941 32.223 23.639 32.6265 23.4973 33.0666C23.4028 33.3509 23.3556 33.626 23.3461 33.9194C23.2989 35.2216 23.2894 36.6429 24.4893 37.4957C24.8673 37.7616 25.3113 37.9267 25.7743 37.9817C25.7837 37.9817 26.3601 38 26.3601 38C26.3601 38 27.8245 38 27.8434 38C27.9946 37.9909 28.1363 37.9817 28.2591 37.945C28.6371 37.8717 28.9961 37.7249 29.3173 37.5049C30.5172 36.6521 30.5078 35.2307 30.4606 33.9286C30.4511 33.6352 30.3944 33.3601 30.3094 33.0666Z" fill="#6BE9EB"/>
<path d="M4.18552 22.8972H2.94781C1.33218 22.8972 0 21.6043 0 20.027V18.8258C0 17.2486 1.33218 15.9648 2.94781 15.9648H4.18552C5.81059 15.9648 7.13333 17.2577 7.13333 18.8258V20.027C7.14278 21.6043 5.81059 22.8972 4.18552 22.8972Z" fill="#01015B"/>
<path d="M42.9511 25.0338C42.8094 24.5936 42.5637 24.1993 42.2141 23.8784C41.7512 23.4566 41.0331 23.3649 40.6552 22.888C40.5891 22.8055 40.5324 22.723 40.4851 22.6313C40.2867 22.2737 40.1922 21.8702 40.1922 21.4667C40.1922 21.4484 40.1922 21.4209 40.1922 21.375C40.1922 21.375 40.1922 20.0821 40.1922 18.7616C40.1922 17.4503 40.1922 16.1482 40.1922 16.1482C40.1922 16.1023 40.1922 16.0748 40.1922 16.0565C40.1922 15.653 40.2867 15.2404 40.4851 14.8919C40.5324 14.8002 40.5985 14.7177 40.6552 14.6352C41.0331 14.1491 41.7512 14.0666 42.2141 13.6448C42.5543 13.333 42.8094 12.9296 42.9511 12.4894C43.0456 12.2051 43.0928 11.93 43.1023 11.6366C43.1495 10.3345 43.159 8.91314 41.959 8.06034C41.5811 7.79442 41.1371 7.62936 40.6741 7.57434C40.6646 7.57434 40.0883 7.556 40.0883 7.556C40.0883 7.556 38.6239 7.556 38.605 7.556C38.4538 7.56517 38.3121 7.57434 38.1892 7.61102C37.8113 7.68438 37.4523 7.8311 37.1311 8.05117C35.9311 8.90397 35.9406 10.3253 35.9878 11.6274C35.9973 11.8567 36.0351 12.0768 36.0918 12.2968C36.1862 12.8654 35.6949 13.0946 35.6949 13.0946C35.6477 13.1129 35.591 13.1405 35.5438 13.1588C34.4856 13.6081 33.4274 14.0483 32.3692 14.4976C31.8307 14.7269 31.2827 14.9561 30.7441 15.1853C29.9788 15.5063 29.2797 15.8547 28.4199 15.653C28.2404 15.598 28.042 15.5796 27.853 15.5613C27.768 15.5521 27.6829 15.543 27.5979 15.543C27.579 15.543 27.5601 15.543 27.5412 15.543H27.494H26.2846H26.2563C26.2374 15.543 26.2185 15.543 26.1996 15.543C26.1051 15.543 26.0201 15.5521 25.9445 15.5613C25.7555 15.5796 25.6043 15.598 25.4059 15.653C24.5462 15.8547 23.847 15.4971 23.0817 15.1853C22.5432 14.9561 21.9952 14.7269 21.4566 14.4976C20.3984 14.0483 19.3402 13.6081 18.2821 13.1588C18.2348 13.1405 18.1781 13.1129 18.1309 13.0946C18.1309 13.0946 17.6396 12.8654 17.7341 12.2968C17.7908 12.0768 17.838 11.8567 17.838 11.6274C17.8852 10.3253 17.8947 8.90397 16.6948 8.05117C16.383 7.8311 16.0145 7.68438 15.6366 7.61102C15.5138 7.58351 15.372 7.56517 15.2209 7.556C15.202 7.556 13.7375 7.556 13.7375 7.556L13.1517 7.57434C12.6888 7.62019 12.2447 7.79442 11.8668 8.06034C10.6669 8.91314 10.6763 10.3345 10.7236 11.6366C10.733 11.93 10.7897 12.2051 10.8747 12.4894C11.0164 12.9296 11.2621 13.3239 11.6117 13.6448C12.0746 14.0666 12.7927 14.1583 13.1706 14.6352C13.2368 14.7177 13.2934 14.8002 13.3407 14.8919C13.5391 15.2495 13.6336 15.653 13.6336 16.0565C13.6336 16.0748 13.6336 16.1023 13.6336 16.1482C13.6336 16.1482 13.6336 17.4411 13.6336 18.7616C13.6336 20.0729 13.6336 21.375 13.6336 21.375C13.6336 21.4209 13.6336 21.4484 13.6336 21.4667C13.6336 21.8702 13.5391 22.2828 13.3407 22.6313C13.2934 22.723 13.2273 22.8055 13.1706 22.888C12.7927 23.374 12.0746 23.4566 11.6117 23.8784C11.2715 24.1902 11.0164 24.5936 10.8747 25.0338C10.7802 25.3181 10.733 25.5932 10.7236 25.8866C10.6763 27.1887 10.6669 28.6101 11.8668 29.4629C12.2447 29.7288 12.6888 29.8938 13.1517 29.9489C13.1612 29.9489 13.7375 29.9672 13.7375 29.9672C13.7375 29.9672 15.202 29.9672 15.2209 29.9672C15.372 29.958 15.5138 29.9489 15.6366 29.9122C16.0145 29.8388 16.3735 29.6921 16.6948 29.472C17.8947 28.6192 17.8852 27.1979 17.838 25.8958C17.8285 25.6023 17.7719 25.3272 17.6868 25.043C17.5451 24.6028 17.2994 24.2085 16.9499 23.8876C16.4869 23.4657 15.7689 23.3741 15.3909 22.8972C15.3248 22.8147 15.2681 22.7322 15.2209 22.6405C15.0225 22.2828 14.928 21.8794 14.928 21.4759C14.928 21.4575 14.928 21.43 14.928 21.3842C14.928 21.3842 14.928 20.0912 14.928 18.7708C14.928 17.4595 14.928 16.1574 14.928 16.1574C14.928 16.1115 14.928 16.084 14.928 16.0657C14.928 15.6622 15.0225 15.2495 15.2209 14.9011C15.2681 14.8094 15.3342 14.7268 15.3909 14.6443C15.5421 14.4518 15.75 14.3234 15.9673 14.2042C16.7137 13.9933 17.5451 14.4059 17.5451 14.4059L23.9226 17.0927C23.8564 17.0652 23.5163 16.9735 23.3746 18.0005C23.3557 18.1289 23.3746 18.2664 23.3746 18.3948L23.384 19.6144C23.384 21.1916 24.6501 22.4662 26.2752 22.4662H26.3035H27.5129H27.5412C29.1663 22.4662 30.4323 21.1641 30.4323 19.5869V18.3948C30.4323 18.2573 30.4512 18.1289 30.4323 18.0005C30.2906 16.9735 29.9599 17.0652 29.8938 17.0835L36.2713 14.3967C36.2713 14.3967 37.1027 13.9749 37.8491 14.195C38.0664 14.305 38.2743 14.4334 38.4254 14.6352C38.4916 14.7177 38.5483 14.8002 38.5955 14.8919C38.7939 15.2495 38.8884 15.653 38.8884 16.0565C38.8884 16.0748 38.8884 16.1023 38.8884 16.1482C38.8884 16.1482 38.8884 17.4411 38.8884 18.7616C38.8884 20.0729 38.8884 21.375 38.8884 21.375C38.8884 21.4209 38.8884 21.4484 38.8884 21.4667C38.8884 21.8702 38.7939 22.2828 38.5955 22.6313C38.5483 22.723 38.4821 22.8055 38.4254 22.888C38.0475 23.374 37.3295 23.4566 36.8665 23.8784C36.5264 24.1902 36.2713 24.5936 36.1296 25.0338C36.0351 25.3181 35.9878 25.5932 35.9784 25.8866C35.9311 27.1887 35.9217 28.6101 37.1216 29.4629C37.4334 29.6829 37.8019 29.8296 38.1798 29.903C38.3026 29.9305 38.4443 29.9489 38.5955 29.958C38.6144 29.958 40.0789 29.958 40.0789 29.958L40.6646 29.9397C41.1276 29.8938 41.5717 29.7196 41.9496 29.4537C43.1495 28.6009 43.1401 27.1796 43.0928 25.8774C43.0928 25.5932 43.0361 25.3181 42.9511 25.0338Z" fill="#01015B"/>
<path d="M27.5317 22.4937H26.2657C24.6406 22.4937 23.3179 21.2099 23.3179 19.6327V18.4039C23.3179 16.8267 24.6406 15.5429 26.2657 15.5429C26.6814 15.5429 27.116 15.5429 27.5317 15.5429C29.1568 15.5429 30.4795 16.8267 30.4795 18.4039V19.6327C30.4795 21.2008 29.1568 22.4937 27.5317 22.4937Z" fill="#A73ED6"/>
<path d="M63.5669 14.5893C63.5669 14.2958 63.8314 14.0391 64.1338 14.0391H64.2661C64.5117 14.0391 64.6818 14.1675 64.8046 14.3325L68.4232 19.6144L72.0419 14.3325C72.1552 14.1491 72.3442 14.0391 72.5804 14.0391H72.7127C73.015 14.0391 73.2796 14.2958 73.2796 14.5893V23.4291C73.2796 23.7408 73.015 23.9884 72.7127 23.9884C72.3914 23.9884 72.1363 23.7225 72.1363 23.4291V16.0931L68.8956 20.7148C68.7634 20.8982 68.6216 20.999 68.4138 20.999C68.2154 20.999 68.0548 20.8982 67.9225 20.7148L64.6912 16.1023V23.4382C64.6912 23.75 64.4456 23.9884 64.1243 23.9884C63.822 23.9884 63.5763 23.75 63.5763 23.4382V14.5893H63.5669Z" fill="#01015B"/>
<path d="M75.5094 23.1907L79.6193 14.4609C79.761 14.1492 79.9783 13.9658 80.3468 13.9658H80.4035C80.7531 13.9658 80.9798 14.1492 81.1121 14.4609L85.222 23.1723C85.2693 23.2732 85.2976 23.3649 85.2976 23.4566C85.2976 23.75 85.052 23.9884 84.7496 23.9884C84.4756 23.9884 84.2867 23.805 84.1827 23.585L83.1246 21.32H77.5691L76.5109 23.6125C76.407 23.8509 76.218 23.9884 75.9629 23.9884C75.67 23.9884 75.4432 23.7592 75.4432 23.4841C75.4338 23.4016 75.4527 23.3007 75.5094 23.1907ZM82.671 20.3113L80.3374 15.2771L78.0037 20.3113H82.671Z" fill="#01015B"/>
<path d="M87.48 14.6444C87.48 14.3326 87.7445 14.085 88.0469 14.085H91.8356C93.0827 14.085 94.0748 14.4518 94.7172 15.0662C95.2085 15.543 95.5014 16.2307 95.5014 17.001V17.0285C95.5014 18.6424 94.3677 19.5869 92.7898 19.8804L95.3125 23.0256C95.4258 23.154 95.5014 23.2824 95.5014 23.4291C95.5014 23.7225 95.2085 23.9793 94.9251 23.9793C94.6889 23.9793 94.5188 23.8509 94.3866 23.6859L91.5332 20.0913H88.6232V23.4199C88.6232 23.7317 88.3587 23.9793 88.0469 23.9793C87.7445 23.9793 87.48 23.7225 87.48 23.4199V14.6444ZM91.7316 19.1009C93.2528 19.1009 94.3393 18.3398 94.3393 17.0744V17.0469C94.3393 15.8364 93.3851 15.112 91.7505 15.112H88.6232V19.1009H91.7316Z" fill="#01015B"/>
<path d="M97.939 14.571C97.939 14.2592 98.2035 14.0116 98.5059 14.0116C98.8271 14.0116 99.0822 14.2684 99.0822 14.571V19.9537L104.855 14.2042C104.987 14.0941 105.12 14.0116 105.299 14.0116C105.601 14.0116 105.847 14.2775 105.847 14.5618C105.847 14.7177 105.771 14.8461 105.658 14.9561L102.068 18.4131L105.923 23.0256C106.027 23.154 106.083 23.264 106.083 23.4291C106.083 23.7225 105.819 23.9884 105.507 23.9884C105.29 23.9884 105.148 23.8784 105.044 23.7317L101.265 19.1651L99.0822 21.2833V23.4199C99.0822 23.7317 98.8176 23.9793 98.5059 23.9793C98.2035 23.9793 97.939 23.7225 97.939 23.4199V14.571Z" fill="#01015B"/>
<path d="M108.275 23.3557V14.6444C108.275 14.3326 108.54 14.085 108.842 14.085H115.144C115.437 14.085 115.664 14.3142 115.664 14.5893C115.664 14.8736 115.428 15.0937 115.144 15.0937H109.428V18.4499H114.492C114.785 18.4499 115.012 18.6883 115.012 18.9542C115.012 19.2385 114.776 19.4585 114.492 19.4585H109.428V22.8972H115.22C115.513 22.8972 115.739 23.1173 115.739 23.4016C115.739 23.6859 115.503 23.9059 115.22 23.9059H108.852C108.54 23.9151 108.275 23.6675 108.275 23.3557Z" fill="#01015B"/>
<path d="M120.652 15.112H117.714C117.421 15.112 117.175 14.8828 117.175 14.6077C117.175 14.3234 117.421 14.085 117.714 14.085H124.753C125.046 14.085 125.291 14.3234 125.291 14.6077C125.291 14.8919 125.046 15.112 124.753 15.112H121.814V23.4291C121.814 23.7409 121.55 23.9885 121.238 23.9885C120.917 23.9885 120.662 23.7317 120.662 23.4291V15.112H120.652Z" fill="#01015B"/>
<path d="M127.144 15.112C127.144 14.5068 127.635 14.0299 128.258 14.0299H128.495C129.033 14.0299 129.345 14.2867 129.657 14.6627L133.956 20.1462V15.0753C133.956 14.4884 134.447 14.0116 135.052 14.0116C135.656 14.0116 136.148 14.4884 136.148 15.0753V22.8972C136.148 23.5024 135.656 23.9793 135.033 23.9793H134.957C134.419 23.9793 134.107 23.7225 133.795 23.3465L129.336 17.6704V22.9431C129.336 23.5299 128.844 24.0068 128.24 24.0068C127.635 24.0068 127.144 23.5299 127.144 22.9431V15.112Z" fill="#01015B"/>
<path d="M138.122 19.0275V19C138.122 16.2032 140.399 13.9107 143.526 13.9107C146.654 13.9107 148.893 16.1757 148.893 18.9725V19C148.893 21.7968 146.616 24.0893 143.489 24.0893C140.371 24.0893 138.122 21.8243 138.122 19.0275ZM146.569 19.0275V19C146.569 17.3128 145.293 15.9098 143.498 15.9098C141.703 15.9098 140.456 17.2853 140.456 18.9725V19C140.456 20.6873 141.731 22.0903 143.526 22.0903C145.322 22.0903 146.569 20.7148 146.569 19.0275Z" fill="#01015B"/>
<path d="M150.877 15.167C150.877 14.5618 151.368 14.085 151.992 14.085H154.826C158.01 14.085 160.212 16.2032 160.212 18.9725V19C160.212 21.7694 158.01 23.9151 154.826 23.9151H151.992C151.368 23.9151 150.877 23.4383 150.877 22.8331V15.167ZM154.826 21.9619C156.65 21.9619 157.878 20.7698 157.878 19.0276V19C157.878 17.2578 156.65 16.0382 154.826 16.0382H153.107V21.9711H154.826V21.9619Z" fill="#01015B"/>
<path d="M162.196 22.833V15.1578C162.196 14.5526 162.687 14.0758 163.311 14.0758H168.923C169.471 14.0758 169.924 14.5068 169.924 15.0478C169.924 15.5796 169.48 16.0015 168.923 16.0015H164.407V18.0005H168.271C168.819 18.0005 169.272 18.4315 169.272 18.9725C169.272 19.5043 168.819 19.9262 168.271 19.9262H164.407V21.9894H168.998C169.546 21.9894 170 22.4204 170 22.9614C170 23.4932 169.556 23.9151 168.998 23.9151H163.311C162.687 23.9151 162.196 23.4382 162.196 22.833Z" fill="#01015B"/>
</svg>
