<svg width="54" height="38" viewBox="0 0 54 38" fill="none" xmlns="http://www.w3.org/2000/svg">
<path d="M49.6217 22.8974H50.8594C52.4845 22.8974 53.8072 21.6044 53.8072 20.0364V18.8351C53.8072 17.2579 52.475 15.9741 50.8594 15.9741H49.6217C47.9966 15.9741 46.6739 17.2671 46.6739 18.8351V20.0364C46.6644 21.6044 47.9966 22.8974 49.6217 22.8974Z" fill="#01015B"/>
<path d="M30.3095 17.4778C30.1678 17.0376 29.9222 16.6433 29.5726 16.3224C29.1096 15.9006 28.3916 15.8089 28.0137 15.332C27.9475 15.2495 27.8908 15.167 27.8436 15.0753C27.6452 14.7177 27.5507 14.3142 27.5507 13.9107C27.5507 13.8924 27.5507 13.8649 27.5507 13.819C27.5507 13.819 27.5507 12.5261 27.5507 11.2056C27.5507 9.89431 27.5507 8.59218 27.5507 8.59218C27.5507 8.54633 27.5507 8.51882 27.5507 8.50048C27.5507 8.09701 27.6452 7.68436 27.8436 7.33591C27.8908 7.24421 27.957 7.16168 28.0137 7.07915C28.3916 6.59315 29.1096 6.51062 29.5726 6.0888C29.9127 5.77703 30.1678 5.37355 30.3095 4.9334C30.404 4.64913 30.4513 4.37403 30.4607 4.0806C30.508 2.77847 30.5174 1.35714 29.3175 0.504344C29.0057 0.284266 28.6372 0.137548 28.2593 0.0641892C28.1365 0.0275097 27.9948 0.00916988 27.8436 0C27.8247 0 26.3602 0 26.3602 0L25.7745 0.0183398C25.3115 0.0641892 24.8674 0.238417 24.4895 0.504344C23.2896 1.35714 23.299 2.77847 23.3463 4.0806C23.3557 4.37403 23.4124 4.64913 23.4975 4.9334C23.6392 5.37355 23.8848 5.76786 24.2344 6.0888C24.6974 6.51062 25.4154 6.60232 25.7933 7.07915C25.85 7.16168 25.9067 7.24421 25.954 7.33591C26.1524 7.69353 26.2469 8.09701 26.2469 8.50048C26.2469 8.51882 26.2469 8.54633 26.2469 8.59218C26.2469 8.59218 26.2469 9.88514 26.2469 11.2056C26.2469 12.5169 26.2469 13.819 26.2469 13.819C26.2469 13.8649 26.2469 13.8924 26.2469 13.9107C26.2469 14.3142 26.1524 14.7268 25.954 15.0753C25.9067 15.167 25.8406 15.2495 25.7839 15.332C25.406 15.818 24.6879 15.9006 24.225 16.3224C23.8848 16.6342 23.6486 17.0376 23.5069 17.4778C23.4124 17.7621 23.3463 18.0372 23.3368 18.3306C23.2896 19.6327 23.2801 21.0541 24.4801 21.9069C24.858 22.1728 25.302 22.3378 25.765 22.3929C25.7745 22.3929 26.3508 22.4112 26.3508 22.4112C26.3508 22.4112 27.8152 22.4112 27.8341 22.4112C27.9853 22.402 28.127 22.3929 28.2499 22.3562C28.6278 22.2828 28.9868 22.1361 29.308 21.916C30.508 21.0632 30.4985 19.6419 30.4513 18.3398C30.4513 18.0372 30.3946 17.7621 30.3095 17.4778Z" fill="#6BE9EB"/>
<path d="M30.3094 33.0667C30.1677 32.6265 29.922 32.2322 29.5724 31.9113C29.1095 31.4894 28.3914 31.3977 28.0135 30.9209C27.9474 30.8384 27.8907 30.7559 27.8434 30.6642C27.645 30.3065 27.5505 29.9031 27.5505 29.4996C27.5505 29.4812 27.5505 29.4537 27.5505 29.4079C27.5505 29.4079 27.5505 28.1149 27.5505 26.7945C27.5505 25.4832 27.5505 24.1811 27.5505 24.1811C27.5505 24.1352 27.5505 24.1077 27.5505 24.0894C27.5505 23.6859 27.645 23.2732 27.8434 22.9248C27.8907 22.8331 27.9568 22.7505 28.0135 22.668C28.3914 22.182 29.1095 22.0995 29.5724 21.6777C29.9126 21.3659 30.1677 20.9624 30.3094 20.5223C30.4039 20.238 30.4511 19.9629 30.4606 19.6695C30.5078 18.3673 30.4983 16.946 29.2984 16.0932C28.9866 15.8731 28.6371 15.7172 28.2591 15.6439C28.1363 15.6164 27.9946 15.598 27.8434 15.5889C27.8245 15.5889 26.3601 15.5889 26.3601 15.5889L25.7743 15.6072C25.3113 15.6531 24.9145 15.8273 24.5366 16.0932C23.3367 16.946 23.2989 18.3673 23.3461 19.6695C23.3556 19.9629 23.4123 20.238 23.4973 20.5223C23.639 20.9624 23.8847 21.3567 24.2342 21.6777C24.6972 22.0995 25.4153 22.1912 25.7932 22.668C25.8593 22.7505 25.916 22.8331 25.9632 22.9248C26.1617 23.2824 26.2561 23.6859 26.2561 24.0894C26.2561 24.1077 26.2561 24.1352 26.2561 24.1811C26.2561 24.1811 26.2561 25.474 26.2561 26.7945C26.2561 28.1058 26.2561 29.4079 26.2561 29.4079C26.2561 29.4537 26.2561 29.4812 26.2561 29.4996C26.2561 29.9031 26.1617 30.3157 25.9632 30.6642C25.916 30.7559 25.8499 30.8384 25.7932 30.9209C25.4153 31.4069 24.6972 31.4894 24.2342 31.9113C23.8941 32.223 23.639 32.6265 23.4973 33.0667C23.4028 33.3509 23.3556 33.626 23.3461 33.9195C23.2989 35.2216 23.2894 36.6429 24.4893 37.4957C24.8673 37.7616 25.3113 37.9267 25.7743 37.9817C25.7837 37.9817 26.3601 38.0001 26.3601 38.0001C26.3601 38.0001 27.8245 38.0001 27.8434 38.0001C27.9946 37.9909 28.1363 37.9817 28.2591 37.945C28.6371 37.8717 28.9961 37.725 29.3173 37.5049C30.5172 36.6521 30.5078 35.2308 30.4606 33.9286C30.4511 33.6352 30.3944 33.3601 30.3094 33.0667Z" fill="#6BE9EB"/>
<path d="M4.18552 22.8973H2.94781C1.33218 22.8973 0 21.6043 0 20.0271V18.8258C0 17.2486 1.33218 15.9648 2.94781 15.9648H4.18552C5.81059 15.9648 7.13333 17.2578 7.13333 18.8258V20.0271C7.14278 21.6043 5.81059 22.8973 4.18552 22.8973Z" fill="#01015B"/>
<path d="M42.9511 25.034C42.8094 24.5938 42.5637 24.1995 42.2141 23.8785C41.7512 23.4567 41.0331 23.365 40.6552 22.8882C40.5891 22.8057 40.5324 22.7231 40.4851 22.6314C40.2867 22.2738 40.1922 21.8703 40.1922 21.4669C40.1922 21.4485 40.1922 21.421 40.1922 21.3752C40.1922 21.3752 40.1922 20.0822 40.1922 18.7618C40.1922 17.4505 40.1922 16.1483 40.1922 16.1483C40.1922 16.1025 40.1922 16.075 40.1922 16.0566C40.1922 15.6532 40.2867 15.2405 40.4851 14.8921C40.5324 14.8004 40.5985 14.7178 40.6552 14.6353C41.0331 14.1493 41.7512 14.0668 42.2141 13.645C42.5543 13.3332 42.8094 12.9297 42.9511 12.4896C43.0456 12.2053 43.0928 11.9302 43.1023 11.6368C43.1495 10.3346 43.159 8.9133 41.959 8.0605C41.5811 7.79457 41.1371 7.62951 40.6741 7.57449C40.6646 7.57449 40.0883 7.55615 40.0883 7.55615C40.0883 7.55615 38.6239 7.55615 38.605 7.55615C38.4538 7.56532 38.3121 7.57449 38.1892 7.61117C37.8113 7.68453 37.4523 7.83125 37.1311 8.05133C35.9311 8.90413 35.9406 10.3255 35.9878 11.6276C35.9973 11.8568 36.0351 12.0769 36.0918 12.297C36.1862 12.8655 35.6949 13.0948 35.6949 13.0948C35.6477 13.1131 35.591 13.1406 35.5438 13.159C34.4856 13.6083 33.4274 14.0484 32.3692 14.4978C31.8307 14.727 31.2827 14.9562 30.7441 15.1855C29.9788 15.5064 29.2797 15.8549 28.4199 15.6532C28.2404 15.5981 28.042 15.5798 27.853 15.5615C27.768 15.5523 27.6829 15.5431 27.5979 15.5431C27.579 15.5431 27.5601 15.5431 27.5412 15.5431H27.494H26.2846H26.2563C26.2374 15.5431 26.2185 15.5431 26.1996 15.5431C26.1051 15.5431 26.0201 15.5523 25.9445 15.5615C25.7555 15.5798 25.6043 15.5981 25.4059 15.6532C24.5462 15.8549 23.847 15.4973 23.0817 15.1855C22.5432 14.9562 21.9952 14.727 21.4566 14.4978C20.3984 14.0484 19.3402 13.6083 18.2821 13.159C18.2348 13.1406 18.1781 13.1131 18.1309 13.0948C18.1309 13.0948 17.6396 12.8655 17.7341 12.297C17.7908 12.0769 17.838 11.8568 17.838 11.6276C17.8852 10.3255 17.8947 8.90413 16.6948 8.05133C16.383 7.83125 16.0145 7.68453 15.6366 7.61117C15.5138 7.58366 15.372 7.56532 15.2209 7.55615C15.202 7.55615 13.7375 7.55615 13.7375 7.55615L13.1517 7.57449C12.6888 7.62034 12.2447 7.79457 11.8668 8.0605C10.6669 8.9133 10.6763 10.3346 10.7236 11.6368C10.733 11.9302 10.7897 12.2053 10.8747 12.4896C11.0164 12.9297 11.2621 13.324 11.6117 13.645C12.0746 14.0668 12.7927 14.1585 13.1706 14.6353C13.2368 14.7178 13.2934 14.8004 13.3407 14.8921C13.5391 15.2497 13.6336 15.6532 13.6336 16.0566C13.6336 16.075 13.6336 16.1025 13.6336 16.1483C13.6336 16.1483 13.6336 17.4413 13.6336 18.7618C13.6336 20.073 13.6336 21.3752 13.6336 21.3752C13.6336 21.421 13.6336 21.4485 13.6336 21.4669C13.6336 21.8703 13.5391 22.283 13.3407 22.6314C13.2934 22.7231 13.2273 22.8057 13.1706 22.8882C12.7927 23.3742 12.0746 23.4567 11.6117 23.8785C11.2715 24.1903 11.0164 24.5938 10.8747 25.034C10.7802 25.3182 10.733 25.5933 10.7236 25.8868C10.6763 27.1889 10.6669 28.6102 11.8668 29.463C12.2447 29.7289 12.6888 29.894 13.1517 29.949C13.1612 29.949 13.7375 29.9674 13.7375 29.9674C13.7375 29.9674 15.202 29.9674 15.2209 29.9674C15.372 29.9582 15.5138 29.949 15.6366 29.9123C16.0145 29.839 16.3735 29.6923 16.6948 29.4722C17.8947 28.6194 17.8852 27.198 17.838 25.8959C17.8285 25.6025 17.7719 25.3274 17.6868 25.0431C17.5451 24.603 17.2994 24.2087 16.9499 23.8877C16.4869 23.4659 15.7689 23.3742 15.3909 22.8974C15.3248 22.8148 15.2681 22.7323 15.2209 22.6406C15.0225 22.283 14.928 21.8795 14.928 21.476C14.928 21.4577 14.928 21.4302 14.928 21.3843C14.928 21.3843 14.928 20.0914 14.928 18.7709C14.928 17.4596 14.928 16.1575 14.928 16.1575C14.928 16.1117 14.928 16.0841 14.928 16.0658C14.928 15.6623 15.0225 15.2497 15.2209 14.9012C15.2681 14.8095 15.3342 14.727 15.3909 14.6445C15.5421 14.4519 15.75 14.3235 15.9673 14.2043C16.7137 13.9934 17.5451 14.4061 17.5451 14.4061L23.9226 17.0928C23.8564 17.0653 23.5163 16.9736 23.3746 18.0007C23.3557 18.129 23.3746 18.2666 23.3746 18.395L23.384 19.6145C23.384 21.1918 24.6501 22.4664 26.2752 22.4664H26.3035H27.5129H27.5412C29.1663 22.4664 30.4323 21.1643 30.4323 19.587V18.395C30.4323 18.2574 30.4512 18.129 30.4323 18.0007C30.2906 16.9736 29.9599 17.0653 29.8938 17.0837L36.2713 14.3969C36.2713 14.3969 37.1027 13.9751 37.8491 14.1951C38.0664 14.3052 38.2743 14.4336 38.4254 14.6353C38.4916 14.7178 38.5483 14.8004 38.5955 14.8921C38.7939 15.2497 38.8884 15.6532 38.8884 16.0566C38.8884 16.075 38.8884 16.1025 38.8884 16.1483C38.8884 16.1483 38.8884 17.4413 38.8884 18.7618C38.8884 20.073 38.8884 21.3752 38.8884 21.3752C38.8884 21.421 38.8884 21.4485 38.8884 21.4669C38.8884 21.8703 38.7939 22.283 38.5955 22.6314C38.5483 22.7231 38.4821 22.8057 38.4254 22.8882C38.0475 23.3742 37.3295 23.4567 36.8665 23.8785C36.5264 24.1903 36.2713 24.5938 36.1296 25.034C36.0351 25.3182 35.9878 25.5933 35.9784 25.8868C35.9311 27.1889 35.9217 28.6102 37.1216 29.463C37.4334 29.6831 37.8019 29.8298 38.1798 29.9032C38.3026 29.9307 38.4443 29.949 38.5955 29.9582C38.6144 29.9582 40.0789 29.9582 40.0789 29.9582L40.6646 29.9398C41.1276 29.894 41.5717 29.7198 41.9496 29.4538C43.1495 28.601 43.1401 27.1797 43.0928 25.8776C43.0928 25.5933 43.0361 25.3182 42.9511 25.034Z" fill="#01015B"/>
<path d="M27.5318 22.4937H26.2658C24.6407 22.4937 23.318 21.21 23.318 19.6327V18.404C23.318 16.8268 24.6407 15.543 26.2658 15.543C26.6815 15.543 27.1161 15.543 27.5318 15.543C29.1569 15.543 30.4796 16.8268 30.4796 18.404V19.6327C30.4796 21.2008 29.1569 22.4937 27.5318 22.4937Z" fill="#A73ED6"/>
</svg>
