<svg width="16" height="16" viewBox="0 0 16 16" fill="none" xmlns="http://www.w3.org/2000/svg">
<path d="M14.375 8.45312H1.03125C0.781 8.45312 0.578125 8.25025 0.578125 8C0.578125 7.74975 0.781 7.54688 1.03125 7.54688H14.375C14.6253 7.54688 14.8281 7.74975 14.8281 8C14.8281 8.25025 14.6253 8.45312 14.375 8.45312Z" fill="#1C499B"/>
<path d="M3.94545 11.0782C3.84061 11.0782 3.73523 11.042 3.64961 10.9681L0.210449 8.00004L3.64961 5.03198C3.83908 4.86848 4.12517 4.88948 4.2887 5.07898C4.45217 5.26841 4.43117 5.55457 4.2417 5.71807L1.59754 8.00004L4.2417 10.282C4.43114 10.4455 4.45217 10.7316 4.2887 10.9211C4.19911 11.0249 4.07261 11.0782 3.94545 11.0782V11.0782Z" fill="#1C499B"/>
<path d="M11.4978 11.0781C11.3706 11.0781 11.2442 11.0249 11.1545 10.921C10.9911 10.7316 11.0121 10.4454 11.2015 10.2819L13.8457 7.99996L11.2015 5.71803C11.0121 5.55453 10.991 5.26837 11.1545 5.07893C11.318 4.88953 11.6041 4.86846 11.7936 5.03193L15.2327 7.99996L11.7936 10.968C11.708 11.0419 11.6026 11.0781 11.4978 11.0781V11.0781Z" fill="#1C499B"/>
</svg>
