<svg width="9" height="13" viewBox="0 0 9 13" fill="none" xmlns="http://www.w3.org/2000/svg">
<path d="M7.94946 7.21484C8.08618 7.10547 8.16821 6.94141 8.16821 6.75C8.16821 6.58594 8.08618 6.42188 7.94946 6.28516L2.64478 0.980469C2.50806 0.871094 2.34399 0.789062 2.17993 0.789062C1.98853 0.789062 1.82446 0.871094 1.71509 0.980469L1.11353 1.58203C0.976807 1.71875 0.894775 1.88281 0.894775 2.04688C0.894775 2.23828 0.949463 2.40234 1.08618 2.51172L5.32446 6.75L1.08618 10.9883C0.949463 11.125 0.894775 11.2891 0.894775 11.4531C0.894775 11.6445 0.976807 11.8086 1.11353 11.918L1.71509 12.5195C1.82446 12.6562 1.98853 12.7109 2.17993 12.7109C2.34399 12.7109 2.50806 12.6562 2.64478 12.5195L7.94946 7.21484Z" fill="white"/>
</svg>
