<svg width="17" height="14" viewBox="0 0 17 14" fill="none" xmlns="http://www.w3.org/2000/svg">
<path d="M16.0253 12.9443L13.861 10.7168C14.3367 9.99624 14.5341 9.11893 14.4149 8.25641C14.2956 7.39389 13.8681 6.60817 13.216 6.05285C12.5638 5.49754 11.734 5.21255 10.8886 5.2536C10.0432 5.29465 9.24308 5.65879 8.64464 6.27484C8.04619 6.89088 7.69246 7.71454 7.65258 8.58479C7.6127 9.45504 7.88954 10.3093 8.42899 10.9806C8.96844 11.6519 9.73171 12.092 10.5696 12.2148C11.4075 12.3376 12.2597 12.1343 12.9597 11.6446L15.124 13.872C15.2037 13.954 15.3118 14.0001 15.4245 14.0001C15.5371 14.0001 15.6452 13.954 15.7249 13.872L16.0253 13.5625C16.1049 13.4805 16.1495 13.3693 16.1495 13.2534C16.1495 13.1375 16.1049 13.0263 16.0253 12.9443ZM11.0496 10.9375C10.6293 10.9375 10.2185 10.8092 9.86902 10.5688C9.51957 10.3285 9.2472 9.98683 9.08637 9.58712C8.92553 9.18741 8.88345 8.74757 8.96544 8.32324C9.04743 7.89891 9.24982 7.50913 9.54701 7.2032C9.84419 6.89728 10.2228 6.68894 10.635 6.60453C11.0473 6.52013 11.4745 6.56345 11.8628 6.72901C12.2511 6.89458 12.583 7.17496 12.8165 7.53469C13.05 7.89442 13.1746 8.31735 13.1746 8.75C13.174 9.32996 12.9499 9.88598 12.5515 10.2961C12.1531 10.7062 11.613 10.9368 11.0496 10.9375ZM2.12461 12.6875V1.31496H6.37461V4.15871C6.37436 4.24496 6.39069 4.33041 6.42264 4.41015C6.45459 4.48988 6.50154 4.56232 6.56078 4.62331C6.62003 4.6843 6.6904 4.73263 6.76786 4.76552C6.84531 4.79841 6.92832 4.81521 7.01211 4.81496H9.2245C9.77939 4.54152 10.3933 4.37582 11.0496 4.37582V3.60938C11.0491 3.2607 10.9144 2.92643 10.6751 2.67969L8.44648 0.385547C8.20782 0.139268 7.88394 0.000596244 7.54602 0H2.12461C1.78639 0.00115634 1.46238 0.140146 1.22344 0.386569C0.98451 0.632992 0.850099 0.966792 0.849609 1.31496V12.6875C0.849609 13.0356 0.983939 13.3694 1.22305 13.6156C1.46216 13.8617 1.78646 14 2.12461 14H9.77461C10.0389 13.9994 10.2964 13.914 10.5113 13.7558C10.7262 13.5976 10.8879 13.3743 10.9739 13.1171C10.3688 13.1047 9.77335 12.9582 9.22822 12.6875H2.12461ZM7.64961 1.42188L9.67102 3.50219H7.64961V1.42188Z" fill="white"/>
</svg>
