<svg width="22" height="18" viewBox="0 0 22 18" fill="none" xmlns="http://www.w3.org/2000/svg">
<path d="M21.7053 2.34326H0.294612C0.216468 2.34326 0.141525 2.31363 0.0862684 2.26089C0.0310121 2.20814 -3.05176e-05 2.1366 -3.05176e-05 2.06201L-3.05176e-05 0.937012C-3.05176e-05 0.86242 0.0310121 0.790883 0.0862684 0.738138C0.141525 0.685393 0.216468 0.655762 0.294612 0.655762H21.7053C21.7835 0.655762 21.8584 0.685393 21.9137 0.738138C21.9689 0.790883 22 0.86242 22 0.937012V2.06201C22 2.1366 21.9689 2.20814 21.9137 2.26089C21.8584 2.31363 21.7835 2.34326 21.7053 2.34326ZM21.7053 9.84326H0.294612C0.216468 9.84326 0.141525 9.81363 0.0862684 9.76089C0.0310121 9.70814 -3.05176e-05 9.6366 -3.05176e-05 9.56201L-3.05176e-05 8.43701C-3.05176e-05 8.36242 0.0310121 8.29088 0.0862684 8.23814C0.141525 8.18539 0.216468 8.15576 0.294612 8.15576H21.7053C21.7835 8.15576 21.8584 8.18539 21.9137 8.23814C21.9689 8.29088 22 8.36242 22 8.43701V9.56201C22 9.6366 21.9689 9.70814 21.9137 9.76089C21.8584 9.81363 21.7835 9.84326 21.7053 9.84326ZM21.7053 17.3433H0.294612C0.216468 17.3433 0.141525 17.3136 0.0862684 17.2609C0.0310121 17.2081 -3.05176e-05 17.1366 -3.05176e-05 17.062L-3.05176e-05 15.937C-3.05176e-05 15.8624 0.0310121 15.7909 0.0862684 15.7381C0.141525 15.6854 0.216468 15.6558 0.294612 15.6558H21.7053C21.7835 15.6558 21.8584 15.6854 21.9137 15.7381C21.9689 15.7909 22 15.8624 22 15.937V17.062C22 17.1366 21.9689 17.2081 21.9137 17.2609C21.8584 17.3136 21.7835 17.3433 21.7053 17.3433Z" fill="#1C499B"/>
</svg>
