<svg width="15" height="10" viewBox="0 0 15 10" fill="none" xmlns="http://www.w3.org/2000/svg">
<path d="M14.7109 4.76953C13.3398 2.07812 10.5977 0.25 7.5 0.25C4.37695 0.25 1.63477 2.07812 0.263672 4.76953C0.212891 4.87109 0.1875 5.02344 0.1875 5.15039C0.1875 5.25195 0.212891 5.4043 0.263672 5.50586C1.63477 8.19727 4.37695 10 7.5 10C10.5977 10 13.3398 8.19727 14.7109 5.50586C14.7617 5.4043 14.7871 5.25195 14.7871 5.125C14.7871 5.02344 14.7617 4.87109 14.7109 4.76953ZM7.5 8.78125C5.46875 8.78125 3.84375 7.15625 3.84375 5.125C3.84375 3.11914 5.46875 1.46875 7.5 1.46875C9.50586 1.46875 11.1562 3.11914 11.1562 5.125V5.15039C11.1562 7.15625 9.50586 8.78125 7.5 8.78125ZM7.5 2.6875C7.29688 2.71289 7.01758 2.73828 6.83984 2.78906C6.9668 2.9668 7.09375 3.29688 7.09375 3.52539C7.09375 4.18555 6.53516 4.71875 5.875 4.71875C5.64648 4.71875 5.31641 4.61719 5.13867 4.49023C5.08789 4.66797 5.0625 4.94727 5.0625 5.125C5.0625 6.4707 6.1543 7.5625 7.5 7.5625C8.8457 7.5625 9.9375 6.4707 9.9375 5.125C9.9375 3.7793 8.8457 2.6875 7.5 2.6875Z" fill="#1565C0"/>
</svg>
