<svg width="8" height="13" viewBox="0 0 8 13" fill="none" xmlns="http://www.w3.org/2000/svg">
<path d="M0.420898 6.28516C0.256836 6.42188 0.202148 6.58594 0.202148 6.75C0.202148 6.94141 0.256836 7.10547 0.420898 7.21484L5.72559 12.5195C5.83496 12.6562 5.99902 12.7109 6.19043 12.7109C6.35449 12.7109 6.51855 12.6562 6.65527 12.5195L7.25684 11.918C7.36621 11.8086 7.44824 11.6445 7.44824 11.4531C7.44824 11.2891 7.39355 11.125 7.28418 10.9883L3.0459 6.75L7.28418 2.51172C7.39355 2.40234 7.44824 2.23828 7.44824 2.04688C7.44824 1.88281 7.36621 1.71875 7.25684 1.58203L6.65527 0.980469C6.51855 0.871094 6.35449 0.789062 6.19043 0.789062C5.99902 0.789062 5.83496 0.871094 5.72559 0.980469L0.420898 6.28516Z" fill="white"/>
</svg>
