<svg width="16" height="16" viewBox="0 0 16 16" fill="none" xmlns="http://www.w3.org/2000/svg">
<path d="M15.4142 1.75784L14.2426 0.586273C13.4616 -0.194758 12.1953 -0.194789 11.4142 0.586273L0.40117 11.5993L0.00470127 15.1675C-0.0483612 15.6452 0.355326 16.0489 0.832951 15.9958L4.4012 15.5993L15.4142 4.58627C16.1952 3.80521 16.1952 2.53887 15.4142 1.75784ZM12.4393 6.1469L5.43748 13.1487V12.063H3.93748V10.563H2.8517L9.85355 3.56112L12.4393 6.1469ZM3.94208 14.6441L2.09848 14.849L1.15145 13.902L1.35629 12.0584L1.9767 11.438H3.06248V12.938H4.56248V14.0237L3.94208 14.6441ZM14.7071 3.87915L13.1464 5.43981L10.5606 2.85402L12.1213 1.29337C12.5121 0.902586 13.1447 0.902524 13.5355 1.29337L14.7071 2.46493C15.0979 2.85574 15.0979 3.48827 14.7071 3.87915Z" fill="#A73ED6"/>
</svg>
