<svg width="17" height="17" viewBox="0 0 17 17" fill="none" xmlns="http://www.w3.org/2000/svg">
<path d="M3.89583 7.79167C0.687615 7.79167 0 7.10409 0 3.89583C0 0.687615 0.687615 0 3.89583 0C7.10409 0 7.79167 0.687615 7.79167 3.89583C7.79167 7.10409 7.10409 7.79167 3.89583 7.79167Z" fill="#6BE9EB"/>
<path d="M3.89583 17.0002C0.687615 17.0002 0 16.3125 0 13.1043C0 9.89608 0.687615 9.2085 3.89583 9.2085C7.10409 9.2085 7.79167 9.89608 7.79167 13.1043C7.79167 16.3125 7.10409 17.0002 3.89583 17.0002Z" fill="#A73ED6"/>
<path d="M9.20837 13.1043C9.20837 16.3125 9.89595 17.0002 13.1042 17.0002C16.3125 17.0002 17 16.3125 17 13.1043C17 9.89608 16.3125 9.2085 13.1042 9.2085C9.89595 9.2085 9.20837 9.89608 9.20837 13.1043Z" fill="white"/>
<path d="M13.8125 1.41683C13.8125 1.02563 13.4953 0.708496 13.1041 0.708496C12.7129 0.708496 12.3958 1.02563 12.3958 1.41683V3.18766H10.625C10.2337 3.18766 9.91663 3.5048 9.91663 3.896C9.91663 4.28719 10.2337 4.60433 10.625 4.60433H12.3958V6.37516C12.3958 6.76636 12.7129 7.0835 13.1041 7.0835C13.4953 7.0835 13.8125 6.76636 13.8125 6.37516V4.60433H15.5833C15.9745 4.60433 16.2916 4.28719 16.2916 3.896C16.2916 3.5048 15.9745 3.18766 15.5833 3.18766H13.8125V1.41683Z" fill="white"/>
</svg>
