<svg width="14" height="14" viewBox="0 0 14 14" fill="none" xmlns="http://www.w3.org/2000/svg">
<path d="M12.6875 2.49951H7.4375L5.94371 0.578926C5.86245 0.474466 5.76597 0.391609 5.6598 0.335088C5.55363 0.278567 5.43984 0.249488 5.32492 0.249512H1.3125C0.964403 0.249512 0.630564 0.427301 0.384422 0.743769C0.138281 1.06024 0 1.48946 0 1.93701L0 12.062C0 12.5096 0.138281 12.9388 0.384422 13.2553C0.630564 13.5717 0.964403 13.7495 1.3125 13.7495H12.6875C13.0356 13.7495 13.3694 13.5717 13.6156 13.2553C13.8617 12.9388 14 12.5096 14 12.062V4.18701C14 3.73946 13.8617 3.31024 13.6156 2.99377C13.3694 2.6773 13.0356 2.49951 12.6875 2.49951ZM8.60918 8.12451L7 10.3042L5.39109 8.12451H8.60918ZM13.125 12.062C13.125 12.2112 13.0789 12.3543 12.9969 12.4598C12.9148 12.5652 12.8035 12.6245 12.6875 12.6245H1.3125C1.19647 12.6245 1.08519 12.5652 1.00314 12.4598C0.921094 12.3543 0.875 12.2112 0.875 12.062V1.93701C0.875 1.78783 0.921094 1.64475 1.00314 1.53926C1.08519 1.43378 1.19647 1.37451 1.3125 1.37451H5.32492L6.5625 2.96604V6.99951H5.12285C4.97636 6.999 4.83308 7.05465 4.71132 7.15935C4.58955 7.26406 4.49483 7.41306 4.43926 7.58732C4.37876 7.76674 4.36061 7.96507 4.38706 8.15764C4.4135 8.35021 4.48338 8.52855 4.58801 8.67049L6.45066 11.194C6.74297 11.5874 7.25758 11.5878 7.54961 11.194L9.41227 8.67154C9.51684 8.52943 9.58668 8.35097 9.61313 8.1583C9.63957 7.96564 9.62145 7.76723 9.56102 7.58768C9.50544 7.41341 9.41072 7.26441 9.28896 7.1597C9.16719 7.055 9.02391 6.99935 8.87742 6.99986H7.4375V3.62451H12.6875C12.8035 3.62451 12.9148 3.68377 12.9969 3.78926C13.0789 3.89475 13.125 4.03783 13.125 4.18701V12.062Z" fill="white"/>
</svg>
