<svg width="21" height="18" viewBox="0 0 21 18" fill="none" xmlns="http://www.w3.org/2000/svg">
<g clip-path="url(#clip0_1071_464)">
<path d="M7.60849 3.85442L0 6.73978L4.39295 17.999L12.0014 15.1137L7.60849 3.85442Z" fill="#6BE9EB"/>
<path d="M13.4866 1.86754L4.875 1.94366L5.00486 16.2233L13.6165 16.1471L13.4866 1.86754Z" fill="#A73ED6"/>
<path d="M16.4333 15.9645L6.81934 13.6832L10.0789 0L19.6784 2.42938L16.4333 15.9645Z" fill="white"/>
<path d="M19.6774 2.43396L16.4333 15.9645L6.83894 13.6878L6.51221 15.0653L17.4522 17.7196L20.9998 2.75455L19.6774 2.43396Z" fill="#01015B"/>
<path d="M17.1699 4.5307L11.5464 3.23489L11.2174 4.62242L16.841 5.91822L17.1699 4.5307Z" fill="#01015B"/>
<path d="M15.8379 9.82266L10.2144 8.52686L9.88542 9.91439L15.5089 11.2102L15.8379 9.82266Z" fill="#6BE9EB"/>
<path d="M14.0304 6.56737L10.9321 5.85345L10.6032 7.24098L13.7014 7.95489L14.0304 6.56737Z" fill="#A73ED6"/>
<path d="M16.4336 15.9645L17.4525 17.7196L21.0001 2.75455L19.6777 2.43396L16.4336 15.9645Z" fill="#01015B"/>
</g>
<defs>
<clipPath id="clip0_1071_464">
<rect width="21" height="18" fill="white"/>
</clipPath>
</defs>
</svg>
