<svg width="11" height="12" viewBox="0 0 11 12" fill="none" xmlns="http://www.w3.org/2000/svg">
<path d="M9.36896 0.469238C9.75177 0.469238 10.089 0.615072 10.3807 0.906738C10.6541 1.18018 10.7908 1.51742 10.7908 1.91846C10.7908 2.30127 10.6541 2.63851 10.3807 2.93018L10.326 2.98486L10.5994 3.23096L10.2986 3.53174L3.49005 10.3677L3.38068 10.4497L3.24396 10.4771L0.837708 10.9692L0.208801 11.0786L0.318176 10.4497L0.810364 8.04346L0.837708 7.90674L0.919739 7.79736L7.75568 0.98877L8.05646 0.687988L8.3299 0.961426L8.35724 0.906738C8.64891 0.615072 8.98615 0.469238 9.36896 0.469238ZM9.36896 1.34424C9.24135 1.34424 9.11375 1.39893 8.98615 1.5083L8.9588 1.56299L9.72443 2.32861L9.77911 2.30127C10.0343 2.04606 10.0343 1.78174 9.77911 1.5083C9.65151 1.39893 9.51479 1.34424 9.36896 1.34424ZM8.0838 1.91846L7.42755 2.54736L8.74005 3.85986L9.36896 3.20361L8.0838 1.91846ZM6.82599 3.17627L2.23224 7.74268L3.05255 7.90674L3.32599 7.96143L3.38068 8.23486L3.54474 9.05518L8.11115 4.46143L6.82599 3.17627ZM1.63068 8.5083L1.43927 9.3833L1.90411 9.84814L2.77911 9.65674L2.56036 8.72705L1.63068 8.5083Z" fill="#1565C0"/>
</svg>
