<svg width="10" height="10" viewBox="0 0 10 10" fill="none" xmlns="http://www.w3.org/2000/svg">
<path d="M6.48726 4.99983L9.85351 1.63358C10.0482 1.4389 10.0482 1.12296 9.85351 0.927959L9.07133 0.145771C8.87664 -0.048916 8.5607 -0.048916 8.3657 0.145771L4.99976 3.51233L1.63352 0.146084C1.43883 -0.0486034 1.12289 -0.0486034 0.927891 0.146084L0.146016 0.927959C-0.0486719 1.12265 -0.0486719 1.43858 0.146016 1.63358L3.51227 4.99983L0.146016 8.36608C-0.0486719 8.56077 -0.0486719 8.87671 0.146016 9.07171L0.928203 9.85389C1.12289 10.0486 1.43883 10.0486 1.63383 9.85389L4.99976 6.48733L8.36601 9.85358C8.5607 10.0483 8.87664 10.0483 9.07164 9.85358L9.85383 9.07139C10.0485 8.87671 10.0485 8.56077 9.85383 8.36577L6.48726 4.99983Z" fill="#C66040"/>
</svg>
