<svg width="16" height="16" viewBox="0 0 16 16" fill="none" xmlns="http://www.w3.org/2000/svg">
<path d="M8 0.9375H8.5625V2.0625H8V0.9375ZM9.75781 1.18359L10.25 1.28906V1.32422H10.2852L10.7422 1.5H10.7773H10.8125L10.8477 1.53516L10.3906 2.55469H10.3555H10.3203L9.93359 2.41406L9.89844 2.37891L9.47656 2.27344L9.75781 1.18359ZM1.25 1.5H5.1875H5.75V2.0625V6H4.625V3.04688C3.75781 3.63281 3.06641 4.38281 2.55078 5.29688C2.05859 6.1875 1.8125 7.17188 1.8125 8.25C1.8125 9.96094 2.41016 11.4258 3.60547 12.6445C4.82422 13.8398 6.28906 14.4375 8 14.4375C9.71094 14.4375 11.1641 13.8398 12.3594 12.6445C13.5781 11.4258 14.1875 9.96094 14.1875 8.25V7.6875H15.3125V8.25C15.3125 10.2656 14.5977 11.9883 13.168 13.418C11.7383 14.8477 10.0156 15.5625 8 15.5625C5.98438 15.5625 4.26172 14.8477 2.83203 13.418C1.40234 11.9883 0.6875 10.2656 0.6875 8.25C0.6875 5.95313 1.55469 4.07812 3.28906 2.625H1.25V1.5ZM11.8672 2.0625L12.1484 2.27344H12.1836L12.5703 2.55469V2.58984H12.6055L12.7812 2.73047L12.0078 3.57422L11.9023 3.46875H11.8672L11.5508 3.1875H11.5156L11.2344 3.01172L11.8672 2.0625ZM13.5547 3.53906L13.6953 3.67969L13.7305 3.71484L14.0469 4.10156V4.13672L14.2578 4.45312L13.2734 5.05078L13.1328 4.80469L13.0977 4.73438L12.8516 4.41797V4.38281L12.7109 4.24219L13.5547 3.53906ZM14.75 5.4375L14.7852 5.50781H14.8203V5.54297L14.9609 6L14.9961 6.07031L15.1016 6.52734L14.0469 6.84375L13.9062 6.38672V6.35156L13.7656 5.96484V5.92969L14.75 5.4375Z" fill="white"/>
</svg>
