<svg width="14" height="12" viewBox="0 0 14 12" fill="none" xmlns="http://www.w3.org/2000/svg">
<path d="M11.4062 0.015625C10.9883 0.015625 10.5664 0.183594 10.25 0.5L3.90625 6.75L3.59375 7.04688C3.21875 7.11719 2.86133 7.30078 2.57812 7.60938C2.16211 8.06445 2.08008 8.62109 1.92188 9.21875C1.76367 9.81641 1.5625 10.4824 1.07812 11.2188L0.578125 12H1.5C3.45703 12 4.74805 11.0645 5.40625 10.4062L5.42188 10.3906C5.72266 10.082 5.89062 9.69336 5.95312 9.29688L6.20312 9.0625L12.5469 2.8125V2.79688C13.1797 2.16406 13.1797 1.13281 12.5469 0.5C12.2305 0.183594 11.8242 0.015625 11.4062 0.015625ZM11.4062 1C11.5625 1 11.7109 1.07031 11.8438 1.20312C12.1113 1.4707 12.1113 1.82617 11.8438 2.09375L7.32812 6.5625L6.42188 5.65625L10.9531 1.20312C11.0859 1.07031 11.25 1 11.4062 1ZM5.70312 6.35938L6.60938 7.26562L5.85938 8L4.95312 7.09375L5.70312 6.35938ZM3.98438 8.01562C4.23633 8.02344 4.50977 8.12109 4.71875 8.3125C5.10742 8.66797 5.11719 9.28906 4.70312 9.70312C4.26953 10.1367 3.5 10.6953 2.375 10.9062C2.61523 10.3809 2.7832 9.89062 2.89062 9.48438C3.05664 8.85742 3.17969 8.42773 3.3125 8.28125C3.48633 8.0918 3.73242 8.00781 3.98438 8.01562Z" fill="#01015B"/>
</svg>
