<svg width="14" height="14" viewBox="0 0 14 14" fill="none" xmlns="http://www.w3.org/2000/svg">
<path d="M13.5607 3.06017L10.9393 0.438855C10.658 0.15755 10.2765 -0.000486201 9.87869 -0.000488281H1.5C0.671562 -0.000488281 0 0.671074 0 1.49951V12.4995C0 13.328 0.671562 13.9995 1.5 13.9995H12.5C13.3284 13.9995 14 13.328 14 12.4995V4.12082C14 3.723 13.842 3.34147 13.5607 3.06017ZM9 0.999512V3.99951H3V0.999512H9ZM13 12.4995C13 12.7752 12.7757 12.9995 12.5 12.9995H1.5C1.22431 12.9995 1 12.7752 1 12.4995V1.49951C1 1.22382 1.22431 0.999512 1.5 0.999512H2V4.24951C2 4.66373 2.33578 4.99951 2.75 4.99951H9.25C9.66422 4.99951 10 4.66373 10 4.24951V1.01486C10.0879 1.03655 10.1682 1.08189 10.2323 1.14595L12.8536 3.76726C12.9001 3.81358 12.9371 3.86869 12.9622 3.92937C12.9873 3.99006 13.0002 4.05514 13 4.12082V12.4995ZM7 6.24951C5.48366 6.24951 4.25 7.48317 4.25 8.99951C4.25 10.5159 5.48366 11.7495 7 11.7495C8.51634 11.7495 9.75 10.5159 9.75 8.99951C9.75 7.48317 8.51634 6.24951 7 6.24951ZM7 10.7495C6.03503 10.7495 5.25 9.96448 5.25 8.99951C5.25 8.03454 6.03503 7.24951 7 7.24951C7.96497 7.24951 8.75 8.03454 8.75 8.99951C8.75 9.96448 7.96497 10.7495 7 10.7495Z" fill="white"/>
</svg>
