<svg width="15" height="14" viewBox="0 0 15 14" fill="none" xmlns="http://www.w3.org/2000/svg">
<path d="M14.4643 0C14.6064 0 14.7426 0.0526784 14.8431 0.146447C14.9436 0.240215 15 0.367392 15 0.5V3.5C15 3.63261 14.9436 3.75979 14.8431 3.85355C14.7426 3.94732 14.6064 4 14.4643 4H13.3929C13.2508 4 13.1145 3.94732 13.014 3.85355C12.9136 3.75979 12.8571 3.63261 12.8571 3.5V2.5H8.83929V12H10.1786C10.3207 12 10.4569 12.0527 10.5574 12.1464C10.6578 12.2402 10.7143 12.3674 10.7143 12.5V13.5C10.7143 13.6326 10.6578 13.7598 10.5574 13.8536C10.4569 13.9473 10.3207 14 10.1786 14H4.82143C4.67935 14 4.54309 13.9473 4.44262 13.8536C4.34216 13.7598 4.28571 13.6326 4.28571 13.5V12.5C4.28571 12.3674 4.34216 12.2402 4.44262 12.1464C4.54309 12.0527 4.67935 12 4.82143 12H6.16071V2.5H2.14286V3.5C2.14286 3.63261 2.08642 3.75979 1.98595 3.85355C1.88548 3.94732 1.74922 4 1.60714 4H0.535714C0.393634 4 0.257373 3.94732 0.156907 3.85355C0.0564412 3.75979 0 3.63261 0 3.5V0.5C0 0.367392 0.0564412 0.240215 0.156907 0.146447C0.257373 0.0526784 0.393634 0 0.535714 0H14.4643Z" fill="black"/>
</svg>
