<svg height="24" viewBox="0 0 24 24" width="24" xmlns="http://www.w3.org/2000/svg"><path fill="#fff" d="m19.5 9c-.2761424 0-.5-.22385763-.5-.5v-1.5h-3.5c-.2761424 0-.5-.22385763-.5-.5v-3.5h-8.5c-.82842712 0-1.5.67157288-1.5 1.5v15c0 .8284271.67157288 1.5 1.5 1.5h11c.8284271 0 1.5-.6715729 1.5-1.5v-2c0-.2761424.2238576-.5.5-.5s.5.2238576.5.5v2c0 1.3807119-1.1192881 2.5-2.5 2.5h-11c-1.38071187 0-2.5-1.1192881-2.5-2.5v-15c0-1.38071187 1.11928813-2.5 2.5-2.5h8.9720225c.1327463-.00841947.2709238.03583949.3815309.14644661l4 4c.1106071.11060712.1548661.24878464.1464466.38153087v1.97202252c0 .27614237-.2238576.5-.5.5zm-1.2071068 4h-7.8067714c-.2761424 0-.49999999-.2238576-.49999999-.5s.22385759-.5.49999999-.5h7.8067714l-2.1464466-2.14644661c-.1952621-.19526215-.1952621-.51184463 0-.70710678.1952622-.19526215.5118446-.19526215.7071068 0l3 2.99999999c.1952621.1952622.1952621.5118446 0 .7071068l-3 3c-.1952622.1952621-.5118446.1952621-.7071068 0-.1952621-.1952622-.1952621-.5118446 0-.7071068zm-2.2928932-9.29289322v2.29289322h2.2928932z"/></svg>