<svg width="32" height="32" viewBox="0 0 32 32" fill="none" xmlns="http://www.w3.org/2000/svg">
<path d="M25.2938 19.88C26.3924 18.49 26.9931 16.7717 27 15C27 13.4178 26.5308 11.871 25.6518 10.5554C24.7727 9.23985 23.5233 8.21447 22.0615 7.60897C20.5997 7.00347 18.9911 6.84504 17.4393 7.15372C15.8874 7.4624 14.462 8.22433 13.3431 9.34315C12.2243 10.462 11.4624 11.8874 11.1537 13.4393C10.845 14.9911 11.0035 16.5997 11.609 18.0615C12.2145 19.5233 13.2398 20.7727 14.5554 21.6518C15.871 22.5308 17.4178 23 19 23C20.7717 22.9931 22.49 22.3924 23.88 21.2938L29.2934 26.707C29.482 26.8892 29.7346 26.99 29.9968 26.9877C30.259 26.9854 30.5098 26.8802 30.6952 26.6948C30.8806 26.5094 30.9858 26.2586 30.9881 25.9964C30.9904 25.7342 30.8896 25.4816 30.7074 25.293L25.2938 19.88ZM13 15C13 13.8133 13.3519 12.6533 14.0112 11.6666C14.6705 10.6799 15.6075 9.91085 16.7039 9.45673C17.8003 9.0026 19.0067 8.88378 20.1705 9.11529C21.3344 9.3468 22.4035 9.91825 23.2426 10.7574C24.0818 11.5965 24.6532 12.6656 24.8847 13.8295C25.1162 14.9934 24.9974 16.1998 24.5433 17.2961C24.0892 18.3925 23.3201 19.3295 22.3334 19.9888C21.3467 20.6481 20.1867 21 19 21C17.4092 20.9983 15.8841 20.3656 14.7593 19.2407C13.6345 18.1159 13.0018 16.5908 13 15Z" fill="black"/>
<path d="M30 3H2C1.73478 3 1.48043 3.10536 1.29289 3.29289C1.10536 3.48043 1 3.73478 1 4C1 4.26522 1.10536 4.51957 1.29289 4.70711C1.48043 4.89464 1.73478 5 2 5H30C30.2652 5 30.5196 4.89464 30.7071 4.70711C30.8946 4.51957 31 4.26522 31 4C31 3.73478 30.8946 3.48043 30.7071 3.29289C30.5196 3.10536 30.2652 3 30 3Z" fill="black"/>
<path d="M2 17H8C8.26522 17 8.51957 16.8946 8.70711 16.7071C8.89464 16.5196 9 16.2652 9 16C9 15.7348 8.89464 15.4804 8.70711 15.2929C8.51957 15.1054 8.26522 15 8 15H2C1.73478 15 1.48043 15.1054 1.29289 15.2929C1.10536 15.4804 1 15.7348 1 16C1 16.2652 1.10536 16.5196 1.29289 16.7071C1.48043 16.8946 1.73478 17 2 17Z" fill="black"/>
<path d="M2 23H8C8.26522 23 8.51957 22.8946 8.70711 22.7071C8.89464 22.5196 9 22.2652 9 22C9 21.7348 8.89464 21.4804 8.70711 21.2929C8.51957 21.1054 8.26522 21 8 21H2C1.73478 21 1.48043 21.1054 1.29289 21.2929C1.10536 21.4804 1 21.7348 1 22C1 22.2652 1.10536 22.5196 1.29289 22.7071C1.48043 22.8946 1.73478 23 2 23Z" fill="black"/>
<path d="M2 29H24C24.2652 29 24.5196 28.8946 24.7071 28.7071C24.8946 28.5196 25 28.2652 25 28C25 27.7348 24.8946 27.4804 24.7071 27.2929C24.5196 27.1054 24.2652 27 24 27H2C1.73478 27 1.48043 27.1054 1.29289 27.2929C1.10536 27.4804 1 27.7348 1 28C1 28.2652 1.10536 28.5196 1.29289 28.7071C1.48043 28.8946 1.73478 29 2 29Z" fill="black"/>
<path d="M2 11H8C8.26522 11 8.51957 10.8946 8.70711 10.7071C8.89464 10.5196 9 10.2652 9 10C9 9.73478 8.89464 9.48043 8.70711 9.29289C8.51957 9.10536 8.26522 9 8 9H2C1.73478 9 1.48043 9.10536 1.29289 9.29289C1.10536 9.48043 1 9.73478 1 10C1 10.2652 1.10536 10.5196 1.29289 10.7071C1.48043 10.8946 1.73478 11 2 11Z" fill="black"/>
</svg>
