<svg width="33" height="32" viewBox="0 0 33 32" fill="none" xmlns="http://www.w3.org/2000/svg">
<g clip-path="url(#clip0_2996_4351)">
<path d="M22.5346 31.3746C22.9161 31.2524 23.2603 31.0373 23.5358 30.7491C23.8942 30.3739 23.968 29.7902 24.3896 29.4671L24.6214 29.3316C24.8198 29.1759 25.0641 29.0881 25.3172 29.0814H25.7387C26.0865 29.0814 26.1391 29.1648 26.4448 29.3316C26.5223 29.3705 26.5965 29.4159 26.6663 29.4671C27.0879 29.7902 27.1721 30.3739 27.5304 30.7491C27.7973 31.0425 28.1399 31.2587 28.5214 31.3746C28.762 31.4574 29.0149 31.4996 29.2696 31.4996C30.3974 31.4996 31.6305 31.5517 32.3683 30.5615C32.557 30.309 32.6834 30.0163 32.7373 29.7068C32.7702 29.595 32.7877 29.4793 32.7897 29.3628V27.6638C32.7463 27.287 32.6048 26.9278 32.3788 26.6215C31.641 25.6416 30.4079 25.6417 29.2802 25.6833C29.0294 25.6972 28.7813 25.7427 28.5422 25.8188C28.1561 25.9255 27.8088 26.1388 27.541 26.4338C27.1826 26.8195 27.0985 27.4032 26.6769 27.7159L26.4553 27.8618C26.2535 28.0173 26.0051 28.1017 25.7493 28.1016H25.3172C25.0646 28.1017 24.8192 28.0172 24.6214 27.8618C24.5403 27.8194 24.4628 27.7706 24.3896 27.7159C23.968 27.4032 23.8942 26.8195 23.5358 26.4338C23.2665 26.129 22.9214 25.8991 22.5346 25.7667C22.2955 25.6906 22.0476 25.645 21.7968 25.6312C20.6691 25.6312 19.436 25.6312 18.7088 26.5693C18.4777 26.8739 18.3321 27.2335 18.287 27.6117V29.3003C18.2767 29.4147 18.2767 29.5298 18.287 29.6443C18.3529 29.9569 18.486 30.252 18.6771 30.5094C19.4149 31.4892 20.6374 31.4892 21.7652 31.4475C22.0098 31.4548 22.2542 31.4303 22.4924 31.3746H22.5346Z" fill="#6BE9EB"/>
<path d="M32.5893 27.2781C32.4628 26.9029 32.5157 26.5381 32.21 26.2358C31.9044 25.9335 31.2296 25.8084 30.9028 25.4019C30.853 25.3573 30.8072 25.3085 30.7659 25.256C30.6065 25.0657 30.5206 24.8256 30.5235 24.5785V23.9531C30.5235 23.6091 30.5973 23.5674 30.7659 23.2651L30.9134 23.0462C31.2401 22.6397 31.8303 22.5667 32.2203 22.2123C32.5212 21.9501 32.7437 21.6112 32.8633 21.2325C32.9479 21.002 32.9909 20.7585 32.9899 20.5133C32.9899 19.471 33.0425 18.2202 32.0307 17.5009C31.7629 17.3225 31.4621 17.1985 31.1455 17.1361C31.0266 17.1202 30.9059 17.1202 30.787 17.1361H29.0481C28.667 17.1786 28.3037 17.3187 27.9941 17.5426C26.9401 18.2619 26.94 19.4501 27.0243 20.5446C27.0382 20.7926 27.0844 21.0378 27.1614 21.2742C27.2787 21.651 27.5015 21.9871 27.8042 22.2436C28.1942 22.598 28.7844 22.6814 29.0795 23.0775C29.1358 23.1455 29.1854 23.2188 29.2272 23.2964C29.3874 23.491 29.4765 23.7334 29.4801 23.9843V24.6097C29.4801 24.9537 29.3958 25.0058 29.2272 25.2977C29.1854 25.3753 29.1358 25.4486 29.0795 25.5166C28.7633 25.9231 28.1626 25.9961 27.8042 26.3505C27.5131 26.611 27.3016 26.9467 27.1931 27.3198C27.1076 27.5509 27.0578 27.7933 27.0454 28.0391C27.0454 29.0814 27.0453 30.3426 28.0149 31.0514C28.3269 31.2709 28.689 31.4106 29.0689 31.4579H30.8081C30.9274 31.468 31.0471 31.468 31.1663 31.4579C31.485 31.3964 31.7869 31.2685 32.0518 31.0827C33.053 30.3635 32.9055 29.1752 32.8633 28.0807C32.8222 27.7989 32.7294 27.5269 32.5893 27.2781Z" fill="white"/>
<path d="M30.345 31.656H29.2172C28.5256 31.6545 27.8612 31.3895 27.3622 30.9159C26.8785 30.4366 26.6026 29.7898 26.5928 29.1127V28.0078C26.6042 27.3341 26.8801 26.6911 27.3622 26.215C27.8544 25.7364 28.5163 25.4671 29.2066 25.4645H30.345C31.0387 25.4655 31.7045 25.7348 32.2 26.215C32.684 26.6899 32.9602 27.3336 32.9694 28.0078V29.1127C32.9596 29.7898 32.6836 30.4366 32.2 30.9159C31.701 31.3895 31.0366 31.6545 30.345 31.656Z" fill="#A73ED6"/>
<path d="M26.7606 23.3068C26.4519 23.0095 26.2049 22.6554 26.0334 22.2645C25.5093 22.8368 24.9266 23.3538 24.2945 23.8071C23.831 24.1355 23.3449 24.4316 22.8398 24.6931L23.1033 24.7557C23.5723 24.9179 23.9926 25.1939 24.3259 25.5583C25.0811 25.1144 25.7876 24.5939 26.4338 24.0052C26.7605 23.7029 26.8871 23.5778 27.0135 23.4423L26.7606 23.3068Z" fill="white" stroke="white" stroke-width="0.22"/>
<path d="M17.6018 27.0905C17.678 26.6948 17.828 26.3166 18.0444 25.9752C16.4585 26.0543 14.8736 25.8049 13.3908 25.2431C11.908 24.6813 10.56 23.8194 9.43349 22.7127C8.36944 21.6731 7.52526 20.4345 6.94985 19.0691C6.37444 17.7038 6.07937 16.2388 6.08191 14.7596C6.08275 13.9322 6.17464 13.1074 6.35596 12.2996C6.45454 11.7593 6.60263 11.229 6.79854 10.7153C7.07561 10.0124 7.429 9.34139 7.85252 8.71398C8.29202 8.04836 8.80063 7.43001 9.37018 6.86903C11.5113 4.76052 14.4117 3.57946 17.4333 3.58564H17.4858V2.05339C14.9552 2.04038 12.4769 2.76551 10.3609 4.13808L9.68643 3.36675C9.83868 3.05835 9.91794 2.71972 9.91827 2.37653C9.9158 1.77757 9.67333 1.20403 9.24384 0.781731C8.81351 0.359714 8.23186 0.122925 7.62582 0.122925C7.01979 0.122925 6.43839 0.359714 6.00806 0.781731C5.79446 0.990148 5.62492 1.23845 5.50912 1.51222C5.39333 1.78599 5.3337 2.07977 5.33363 2.37653C5.33347 2.67486 5.39284 2.97028 5.50861 3.24577C5.62437 3.52126 5.79414 3.77138 6.00806 3.98173C6.4368 4.40266 7.01655 4.63874 7.62068 4.63841C7.985 4.64163 8.34533 4.56323 8.67465 4.4091L9.28604 5.01366C9.00498 5.25687 8.73092 5.50704 8.46391 5.76415C7.64882 6.56086 6.9404 7.45763 6.35596 8.43255C6.12821 8.81612 5.92399 9.21293 5.74457 9.62082C5.0355 11.2425 4.67652 12.9928 4.69059 14.7596C4.6838 17.325 5.47075 19.8311 6.94599 21.9413L1.57086 25.9023C1.18313 26.1878 0.861841 26.5525 0.629076 26.9715C0.396311 27.3905 0.257476 27.8541 0.221741 28.3309C0.19096 28.8083 0.263452 29.2867 0.434286 29.7342C0.60512 30.1818 0.870313 30.5882 1.21242 30.9264C1.5252 31.2353 1.8967 31.48 2.30551 31.6464C2.71431 31.8127 3.15235 31.8975 3.59441 31.8957H3.83681C4.31823 31.8623 4.78688 31.7268 5.21063 31.4984C5.63438 31.27 6.00337 30.954 6.29266 30.572L10.3189 25.2768C12.4696 26.7231 15.0116 27.4933 17.6124 27.4866C17.5924 27.3555 17.5889 27.2225 17.6018 27.0905ZM8.11601 2.91854C7.966 3.06558 7.76344 3.14807 7.55223 3.14807C7.34102 3.14807 7.1382 3.06558 6.98819 2.91854C6.8399 2.77207 6.75653 2.57337 6.75634 2.3661C6.75816 2.16222 6.8415 1.96734 6.98819 1.82408C7.13911 1.67393 7.34333 1.58792 7.55738 1.58434C7.76695 1.58452 7.96791 1.66701 8.11601 1.81366C8.2627 1.95692 8.34604 2.15179 8.34786 2.35567C8.35898 2.5621 8.28704 2.76448 8.14766 2.91854H8.11601ZM4.95408 29.6651C4.79535 29.8811 4.5902 30.0595 4.35325 30.1875C4.1163 30.3155 3.85341 30.3898 3.58386 30.4052C3.3154 30.4257 3.04566 30.3889 2.79287 30.2972C2.54007 30.2054 2.31027 30.061 2.11895 29.8736C2.03989 29.7941 1.96931 29.7067 1.90821 29.613C1.71637 29.3187 1.62117 29.1572 1.58141 28.7583C1.5707 28.6508 1.5707 28.5426 1.58141 28.4352C1.60325 28.1715 1.6812 27.9154 1.81017 27.6837C1.93913 27.452 2.11617 27.2498 2.32969 27.0905L7.72592 23.1192C7.92617 23.3381 8.12652 23.557 8.34786 23.7654C8.56919 23.9739 8.76956 24.172 8.9909 24.3596L4.95408 29.6651Z" fill="white" stroke="white" stroke-width="0.22"/>
<path d="M17.0648 9.62083C16.9605 9.35363 16.7768 9.12396 16.5378 8.96208C16.2989 8.8002 16.0159 8.71371 15.7262 8.71399C15.4369 8.71514 15.1546 8.8022 14.9159 8.9639C14.6773 9.12559 14.4933 9.35446 14.3877 9.62083L11.0677 18.4286C10.9463 18.7399 10.9532 19.0858 11.0873 19.392C11.2214 19.6981 11.4717 19.9398 11.7844 20.0651C11.9379 20.1232 12.1016 20.1503 12.2658 20.1449C12.43 20.1395 12.5913 20.1017 12.7406 20.0338C12.8898 19.9658 13.0239 19.869 13.1348 19.7491C13.2457 19.6292 13.3313 19.4886 13.3864 19.3355L13.9134 17.9492H17.5391L18.0555 19.3251C18.1418 19.5643 18.3004 19.7715 18.5097 19.9188C18.7189 20.066 18.9687 20.1462 19.2255 20.1485C19.3768 20.1461 19.5265 20.1179 19.6681 20.0651C19.979 19.9377 20.2276 19.6957 20.3613 19.3903C20.4951 19.0849 20.5034 18.7401 20.3847 18.4286L17.0648 9.62083ZM14.8514 15.4163L15.7157 13.1231L16.5695 15.4163H14.8514Z" fill="white"/>
<path d="M22.5032 12.8834C22.2567 12.8564 22.0093 12.925 21.8128 13.0746C21.6163 13.2243 21.4859 13.4434 21.4492 13.686V19.3668C21.4834 19.6113 21.6127 19.833 21.8095 19.9848C22.0063 20.1366 22.2551 20.2065 22.5032 20.1798C22.7513 20.2065 23.0004 20.1366 23.1972 19.9848C23.394 19.833 23.523 19.6113 23.5572 19.3668V13.686C23.5205 13.4434 23.3904 13.2243 23.1938 13.0746C22.9973 12.925 22.7497 12.8564 22.5032 12.8834Z" fill="white"/>
<path d="M22.5032 11.8306C23.0853 11.8306 23.5572 11.3639 23.5572 10.7883C23.5572 10.2126 23.0853 9.74591 22.5032 9.74591C21.9211 9.74591 21.4492 10.2126 21.4492 10.7883C21.4492 11.3639 21.9211 11.8306 22.5032 11.8306Z" fill="white"/>
<path d="M29.396 11.0489C29.396 9.13584 28.6275 7.30117 27.2597 5.94847C25.8919 4.59576 24.0369 3.83582 22.1025 3.83582" stroke="white" stroke-width="1.3" stroke-linecap="round"/>
<path d="M26.6558 11.0488C26.6572 10.4571 26.5403 9.87096 26.312 9.32402C26.0837 8.77707 25.7483 8.28013 25.3252 7.86172C24.9021 7.44331 24.3997 7.11168 23.8466 6.88587C23.2936 6.66006 22.7009 6.54454 22.1025 6.54591" stroke="white" stroke-width="1.3" stroke-linecap="round"/>
<path d="M32.1259 11.0488C32.1259 9.74706 31.8666 8.45805 31.3629 7.25539C30.8592 6.05272 30.1209 4.95995 29.1901 4.03947C28.2594 3.11899 27.1545 2.38883 25.9384 1.89067C24.7223 1.39251 23.4188 1.13611 22.1025 1.13611" stroke="white" stroke-width="1.3" stroke-linecap="round"/>
</g>
<defs>
<clipPath id="clip0_2996_4351">
<rect width="33" height="32" fill="white"/>
</clipPath>
</defs>
</svg>
