<svg width="16" height="16" viewBox="0 0 16 16" fill="none" xmlns="http://www.w3.org/2000/svg">
<g clip-path="url(#clip0_3252_4000)">
<path d="M7.54687 14.375L7.54687 1.03125C7.54687 0.781 7.74975 0.578125 8 0.578125C8.25025 0.578125 8.45312 0.781 8.45312 1.03125L8.45312 14.375C8.45312 14.6253 8.25025 14.8281 8 14.8281C7.74975 14.8281 7.54687 14.6252 7.54687 14.375Z" fill="#1C499B"/>
<path d="M4.92184 3.94545C4.92184 3.84061 4.95802 3.73523 5.0319 3.64961L7.99996 0.210449L10.968 3.64961C11.1315 3.83908 11.1105 4.12517 10.921 4.2887C10.7316 4.45217 10.4454 4.43117 10.2819 4.2417L7.99996 1.59754L5.71802 4.2417C5.55452 4.43114 5.26837 4.45217 5.07893 4.2887C4.97509 4.19911 4.92184 4.07261 4.92184 3.94545V3.94545Z" fill="#1C499B"/>
<path d="M4.92191 11.4978C4.92191 11.3706 4.97513 11.2442 5.07897 11.1545C5.26841 10.9911 5.55457 11.0121 5.71807 11.2015L8.00004 13.8457L10.282 11.2015C10.4455 11.0121 10.7316 10.991 10.9211 11.1545C11.1105 11.318 11.1315 11.6041 10.9681 11.7936L8.00004 15.2327L5.03197 11.7936C4.9581 11.708 4.92191 11.6026 4.92191 11.4978V11.4978Z" fill="#1C499B"/>
</g>
<defs>
<clipPath id="clip0_3252_4000">
<rect width="16" height="16" fill="white" transform="translate(16) rotate(90)"/>
</clipPath>
</defs>
</svg>
